<svg width="16" height="12" viewBox="0 0 16 12" fill="none" xmlns="http://www.w3.org/2000/svg">
<path d="M5.99999 10H9.99999C10.2549 10.0003 10.5 10.0979 10.6854 10.2728C10.8707 10.4478 10.9822 10.687 10.9972 10.9414C11.0121 11.1958 10.9293 11.4464 10.7657 11.6418C10.6021 11.8373 10.3701 11.9629 10.117 11.993L9.99999 12H5.99999C5.74511 11.9997 5.49996 11.9021 5.31462 11.7272C5.12929 11.5522 5.01776 11.313 5.00282 11.0586C4.98788 10.8042 5.07066 10.5536 5.23425 10.3582C5.39785 10.1627 5.6299 10.0371 5.88299 10.007L5.99999 10H9.99999H5.99999ZM3.99999 5H12C12.2549 5.00028 12.5 5.09788 12.6854 5.27285C12.8707 5.44782 12.9822 5.68695 12.9972 5.94139C13.0121 6.19584 12.9293 6.44638 12.7657 6.64183C12.6021 6.83729 12.3701 6.9629 12.117 6.993L12 7H3.99999C3.74511 6.99972 3.49996 6.90212 3.31462 6.72715C3.12929 6.55218 3.01776 6.31305 3.00282 6.05861C2.98788 5.80416 3.07067 5.55362 3.23426 5.35817C3.39785 5.16271 3.62989 5.0371 3.88299 5.007L3.99999 5H12H3.99999ZM0.999991 0H15C15.2549 0.000282707 15.5 0.0978789 15.6854 0.272848C15.8707 0.447817 15.9822 0.686953 15.9972 0.941395C16.0121 1.19584 15.9293 1.44638 15.7657 1.64183C15.6021 1.83729 15.3701 1.9629 15.117 1.993L15 2H0.999991C0.745111 1.99972 0.499958 1.90212 0.314622 1.72715C0.129286 1.55218 0.0177558 1.31305 0.00281867 1.05861C-0.0121184 0.804163 0.0706651 0.553621 0.234255 0.358168C0.397846 0.162715 0.629895 0.0371036 0.88299 0.00699997L0.999991 0H15H0.999991Z" fill="black"/>
</svg>
