<svg width="20" height="20" viewBox="0 0 20 20" fill="none" xmlns="http://www.w3.org/2000/svg">
<path d="M2.74976 4.5C2.55084 4.5 2.36008 4.57902 2.21943 4.71967C2.07877 4.86032 1.99976 5.05109 1.99976 5.25C1.99976 5.44891 2.07877 5.63968 2.21943 5.78033C2.36008 5.92098 2.55084 6 2.74976 6H17.2498C17.4487 6 17.6394 5.92098 17.7801 5.78033C17.9207 5.63968 17.9998 5.44891 17.9998 5.25C17.9998 5.05109 17.9207 4.86032 17.7801 4.71967C17.6394 4.57902 17.4487 4.5 17.2498 4.5H2.74976Z" fill="black"/>
<path d="M2.74976 7.5C2.55084 7.5 2.36008 7.57902 2.21943 7.71967C2.07877 7.86032 1.99976 8.05109 1.99976 8.25C1.99976 8.44891 2.07877 8.63968 2.21943 8.78033C2.36008 8.92098 2.55084 9 2.74976 9H17.2498C17.4487 9 17.6394 8.92098 17.7801 8.78033C17.9207 8.63968 17.9998 8.44891 17.9998 8.25C17.9998 8.05109 17.9207 7.86032 17.7801 7.71967C17.6394 7.57902 17.4487 7.5 17.2498 7.5H2.74976Z" fill="black"/>
<path d="M1.99976 11.25C1.99976 11.0511 2.07877 10.8603 2.21943 10.7197C2.36008 10.579 2.55084 10.5 2.74976 10.5H17.2498C17.4487 10.5 17.6394 10.579 17.7801 10.7197C17.9207 10.8603 17.9998 11.0511 17.9998 11.25C17.9998 11.4489 17.9207 11.6397 17.7801 11.7803C17.6394 11.921 17.4487 12 17.2498 12H2.74976C2.55084 12 2.36008 11.921 2.21943 11.7803C2.07877 11.6397 1.99976 11.4489 1.99976 11.25Z" fill="black"/>
<path d="M2.74976 13.5C2.55084 13.5 2.36008 13.579 2.21943 13.7197C2.07877 13.8603 1.99976 14.0511 1.99976 14.25C1.99976 14.4489 2.07877 14.6397 2.21943 14.7803C2.36008 14.921 2.55084 15 2.74976 15H12.2498C12.4487 15 12.6394 14.921 12.7801 14.7803C12.9207 14.6397 12.9998 14.4489 12.9998 14.25C12.9998 14.0511 12.9207 13.8603 12.7801 13.7197C12.6394 13.579 12.4487 13.5 12.2498 13.5H2.74976Z" fill="black"/>
</svg>
